# File created by Blade
# Date/Time:  Tue Apr 07 20:40:51 2015
#---------------------------------------------------------
:version 1.10
:name HOM
:units
  mass 1.0
  length 1.000000
  angle deg
:documentation
     Acclaim Skeleton File
:root
   axis xyz
   order TX TY TZ RX RY RZ
   position 0.000000 0.000000 0.000000
   orientation 0 0 0
:bonedata
   begin
      id 1
      name Spine_dum
      direction 0.000000 1.000000 0.000000
      length 4.885285
      axis 0.0 0.0 0.0 xyz
   end
   begin
      id 2
      name LeftUpLeg_dum
      direction 1.000000 0.000000 0.000000
      length 2.672193
      axis 0.0 0.0 0.0 xyz
   end
   begin
      id 3
      name RightUpLeg_dum
      direction -1.000000 0.000000 0.000000
      length 2.672193
      axis 0.0 0.0 0.0 xyz
   end
   begin
      id 4
      name Spine
      direction 0.000000 1.000000 0.000000
      length 0.000000
      axis 0.0 0.0 0.0 xyz
      dof rx ry rz
   end
   begin
      id 5
      name Spine_dum1
      direction 0.000000 1.000000 0.000000
      length 16.494159
      axis 0.0 0.0 0.0 xyz
   end
   begin
      id 6
      name Spine_dum2
      direction 0.000000 1.000000 0.000000
      length 10.663448
      axis 0.0 0.0 0.0 xyz
   end
   begin
      id 7
      name Spine_dum3
      direction 0.000000 1.000000 0.000000
      length 10.663448
      axis 0.0 0.0 0.0 xyz
   end
   begin
      id 8
      name Head
      direction 0.000000 1.000000 0.000000
      length 4.527550
      axis 0.0 0.0 0.0 xyz
      dof rx ry rz
   end
   begin
      id 9
      name LeftShoulder
      direction 1.000000 0.000000 0.000000
      length 7.531907
      axis 0.0 0.0 -90.0 xyz
      dof rx ry rz
   end
   begin
      id 10
      name LeftArm
      direction 1.000000 0.000000 0.000000
      length 10.229199
      axis 0.0 0.0 -90.0 xyz
      dof rx ry rz
   end
   begin
      id 11
      name LeftForeArm
      direction 1.000000 0.000000 0.000000
      length 8.673495
      axis 0.0 0.0 -90.0 xyz
      dof ry rz rx
   end
   begin
      id 12
      name LeftHand
      direction 0.000000 0.000000 0.000000
      length 0.000000
      axis 0.0 0.0 -90.0 xyz
      dof rx ry rz
   end
   begin
      id 13
      name LeftHand_dum1
      direction 0.000000 0.000000 0.000000
      length 0.000000
      axis 0.0 0.0 -90.0 xyz
   end
   begin
      id 14
      name LeftHand_dum2
      direction 1.000000 0.000000 0.000000
      length 3.937000
      axis 0.0 0.0 -90.0 xyz
   end
   begin
      id 15
      name LeftHandThumb1
      direction 0.000000 0.000000 1.000000
      length 3.937000
      axis 0.0 0.0 -90.0 xyz
      dof rx rz ry
   end
   begin
      id 16
      name RightShoulder
      direction -1.000000 0.000000 0.000000
      length 7.531907
      axis 0.0 0.0 90.0 xyz
      dof rx ry rz
   end
   begin
      id 17
      name RightArm
      direction -1.000000 0.000000 0.000000
      length 10.229199
      axis 0.0 0.0 90.0 xyz
      dof rx ry rz
   end
   begin
      id 18
      name RightForeArm
      direction -1.000000 0.000000 0.000000
      length 8.673495
      axis 0.0 0.0 90.0 xyz
      dof ry rz rx
   end
   begin
      id 19
      name RightHand
      direction 0.000000 0.000000 0.000000
      length 0.000000
      axis 0.0 0.0 90.0 xyz
      dof rx ry rz
   end
   begin
      id 20
      name RightHand_dum1
      direction 0.000000 0.000000 0.000000
      length 0.000000
      axis 0.0 0.0 90.0 xyz
   end
   begin
      id 21
      name RightHand_dum2
      direction -1.000000 0.000000 0.000000
      length 3.937000
      axis 0.0 0.0 90.0 xyz
   end
   begin
      id 22
      name RightHandThumb1
      direction 0.000000 0.000000 1.000000
      length 3.937000
      axis 0.0 0.0 90.0 xyz
      dof rx rz ry
   end
   begin
      id 23
      name LeftUpLeg
      direction 0.000000 -1.000000 0.000000
      length 16.263388
      axis 0.0 0.0 0.0 xyz
      dof rx ry rz
   end
   begin
      id 24
      name LeftLeg
      direction 0.000000 -1.000000 0.000000
      length 14.328163
      axis 0.0 0.0 0.0 xyz
      dof rx ry rz
   end
   begin
      id 25
      name LeftFoot
      direction 0.000000 -0.258819 0.965926
      length 5.031290
      axis 15.0 0.0 0.0 xyz
      dof rx ry rz
   end
   begin
      id 26
      name LeftToeBase
      direction 0.000000 0.000000 1.000000
      length 2.952750
      axis 0.0 0.0 0.0 xyz
      dof rx ry rz
   end
   begin
      id 27
      name RightUpLeg
      direction 0.000000 -1.000000 0.000000
      length 16.263388
      axis 0.0 0.0 0.0 xyz
      dof rx ry rz
   end
   begin
      id 28
      name RightLeg
      direction 0.000000 -1.000000 0.000000
      length 14.328163
      axis 0.0 0.0 0.0 xyz
      dof rx ry rz
   end
   begin
      id 29
      name RightFoot
      direction 0.000000 -0.258819 0.965926
      length 5.031290
      axis 15.0 0.0 0.0 xyz
      dof rx ry rz
   end
   begin
      id 30
      name RightToeBase
      direction 0.000000 0.000000 1.000000
      length 2.952750
      axis 0.0 0.0 0.0 xyz
      dof rx ry rz
   end
:hierarchy
   begin
      root Spine_dum LeftUpLeg_dum RightUpLeg_dum
      Spine_dum Spine
      LeftUpLeg_dum LeftUpLeg
      RightUpLeg_dum RightUpLeg
      Spine Spine_dum1 Spine_dum2 Spine_dum3
      Spine_dum1 Head
      Spine_dum2 LeftShoulder
      Spine_dum3 RightShoulder
      LeftShoulder LeftArm
      LeftArm LeftForeArm
      LeftForeArm LeftHand
      LeftHand LeftHand_dum1 LeftHand_dum2
      LeftHand_dum1 LeftHandThumb1
      RightShoulder RightArm
      RightArm RightForeArm
      RightForeArm RightHand
      RightHand RightHand_dum1 RightHand_dum2
      RightHand_dum1 RightHandThumb1
      LeftUpLeg LeftLeg
      LeftLeg LeftFoot
      LeftFoot LeftToeBase
      RightUpLeg RightLeg
      RightLeg RightFoot
      RightFoot RightToeBase
   end

# File created by Blade
# Date/Time:  Tue Apr 07 20:41:02 2015
# Frame Rate: 120.000 fps
#------------------------------------------------------
:FULLY-SPECIFIED
:DEGREES
228
root 1.185550 32.704744 1.461883 8.369312 2.784885 -0.391948
Spine -11.620175 -7.551281 -0.965166
Head 4.275849 -4.211046 2.006125
LeftShoulder -20.610835 39.001874 22.107561
LeftArm 53.848711 -52.928725 -50.176415
LeftForeArm 5.695364 -0.000000 -1.964036
LeftHand 5.307647 -0.000000 5.390606
LeftHandThumb1 -26.253704 0.000000 33.147579
RightShoulder -8.275836 6.047912 -32.050436
RightArm 13.204348 13.270337 38.346224
RightForeArm -11.610715 -0.000000 1.580004
RightHand 4.450531 0.000000 1.468403
RightHandThumb1 -24.326973 -0.000000 -32.862282
LeftUpLeg -3.522822 -7.048232 -0.093398
LeftLeg 0.325927 -0.000000 -0.000000
LeftFoot -13.130308 9.944920 -17.985720
LeftToeBase -4.785600 -0.000000 0.000000
RightUpLeg -1.083088 -2.782095 0.636142
RightLeg -4.737472 -0.000000 0.000000
RightFoot -6.682792 -6.280163 5.827851
RightToeBase 0.670602 -0.000000 -0.000000
229
root 1.197159 32.705065 1.486961 8.388854 2.821140 -0.367316
Spine -11.713719 -7.612858 -0.978952
Head 4.394162 -4.157855 1.970013
LeftShoulder -20.614842 39.086783 22.085495
LeftArm 53.953552 -53.003014 -50.264647
LeftForeArm 5.761819 0.000000 -1.923497
LeftHand 5.349115 -0.000000 5.513639
LeftHandThumb1 -26.253704 0.000000 33.147579
RightShoulder -8.243756 6.001235 -32.030940
RightArm 13.244980 13.269527 38.354897
RightForeArm -11.648141 -0.000000 1.626761
RightHand 4.589775 0.000000 1.227806
RightHandThumb1 -24.326973 -0.000000 -32.862282
LeftUpLeg -3.458401 -6.900497 -0.110831
LeftLeg 0.245131 -0.000000 -0.000000
LeftFoot -13.085050 9.639928 -18.346561
LeftToeBase -4.487582 -0.000000 0.000000
RightUpLeg -1.059292 -2.761111 0.600694
RightLeg -4.722101 -0.000000 0.000000
RightFoot -6.725683 -6.376858 5.811528
RightToeBase 0.661953 -0.000000 -0.000000
230
root 1.207761 32.706761 1.513840 8.405460 2.869652 -0.362253
Spine -11.813628 -7.662340 -0.972845
Head 4.533366 -4.120062 1.928375
LeftShoulder -20.598790 39.164159 22.066186
LeftArm 54.055934 -53.051597 -50.337764
LeftForeArm 5.722154 0.000000 -1.871628
LeftHand 5.331028 -0.000000 5.689412
LeftHandThumb1 -26.253704 0.000000 33.147579
RightShoulder -8.216119 5.950599 -32.013649
RightArm 13.273590 13.251837 38.364503
RightForeArm -11.689983 -0.000000 1.665549
RightHand 4.606843 -0.000000 1.272922
RightHandThumb1 -24.326973 -0.000000 -32.862282
LeftUpLeg -3.396437 -6.778547 -0.102736
LeftLeg 0.170367 -0.000000 -0.000000
LeftFoot -12.987840 9.338220 -18.675360
LeftToeBase -4.257927 -0.000000 0.000000
RightUpLeg -1.011452 -2.715762 0.580602
RightLeg -4.741909 -0.000000 0.000000
RightFoot -6.759380 -6.468828 5.862255
RightToeBase 0.734105 -0.000000 -0.000000
231
root 1.219895 32.708994 1.541354 8.424804 2.937115 -0.337156
Spine -11.919424 -7.734730 -0.980523
Head 4.688302 -4.074832 1.878712
LeftShoulder -20.580591 39.237118 22.047169
LeftArm 54.151267 -53.082997 -50.410459
LeftForeArm 5.738651 -0.000000 -1.817239
LeftHand 5.364180 0.000000 5.839272
LeftHandThumb1 -26.253704 0.000000 33.147579
RightShoulder -8.179547 5.877026 -31.992168
RightArm 13.306542 13.275447 38.386557
RightForeArm -11.745213 -0.000000 1.704329
RightHand 4.499409 -0.000000 1.132646
RightHandThumb1 -24.326973 -0.000000 -32.862282
LeftUpLeg -3.357277 -6.650160 -0.117479
LeftLeg 0.120924 -0.000000 -0.000000
LeftFoot -12.807954 9.039615 -18.889949
LeftToeBase -4.109362 -0.000000 0.000000
RightUpLeg -0.976662 -2.678701 0.541647
RightLeg -4.732614 -0.000000 0.000000
RightFoot -6.793647 -6.574231 5.905067
RightToeBase 0.720004 -0.000000 -0.000000
232
root 1.230493 32.711871 1.569482 8.436387 3.010289 -0.315410
Spine -12.015990 -7.800548 -0.992212
Head 4.853587 -4.025854 1.829247
LeftShoulder -20.534814 39.266621 22.055400
LeftArm 54.215315 -53.117358 -50.497736
LeftForeArm 5.843399 -0.000000 -1.727609
LeftHand 5.435266 -0.000000 5.893696
LeftHandThumb1 -26.253704 0.000000 33.147579
RightShoulder -8.153323 5.857457 -31.977265
RightArm 13.311573 13.235374 38.414529
RightForeArm -11.679535 -0.000000 1.698989
RightHand 4.530994 -0.000000 0.952148
RightHandThumb1 -24.326973 -0.000000 -32.862282
LeftUpLeg -3.298758 -6.579919 -0.134588
LeftLeg 0.041751 -0.000000 -0.000000
LeftFoot -12.580991 8.902744 -18.895680
LeftToeBase -3.800012 -0.000000 0.000000
RightUpLeg -0.935234 -2.655181 0.509853
RightLeg -4.717114 -0.000000 0.000000
RightFoot -6.835314 -6.679549 5.946278
RightToeBase 0.714362 -0.000000 -0.000000
233
root 1.240938 32.714632 1.597616 8.457143 3.103198 -0.300968
Spine -12.126075 -7.871650 -0.990902
Head 5.022726 -4.016898 1.775511
LeftShoulder -20.464954 39.304863 22.077878
LeftArm 54.234436 -53.113807 -50.551234
LeftForeArm 5.782871 -0.000000 -1.600242
LeftHand 5.434050 0.000000 5.925751
LeftHandThumb1 -26.253704 0.000000 33.147579
RightShoulder -8.126582 5.849532 -31.973732
RightArm 13.281453 13.223364 38.444070
RightForeArm -11.668500 0.000000 1.708140
RightHand 4.504592 -0.000000 0.980604
RightHandThumb1 -24.326973 -0.000000 -32.862282
LeftUpLeg -3.236444 -6.553354 -0.146991
LeftLeg -0.080406 -0.000000 0.000000
LeftFoot -12.240659 8.805123 -18.868865
LeftToeBase -3.627001 -0.000000 0.000000
RightUpLeg -0.911788 -2.675634 0.491163
RightLeg -4.681137 -0.000000 0.000000
RightFoot -6.883695 -6.759710 5.974189
RightToeBase 0.730037 -0.000000 -0.000000
234
root 1.252451 32.717196 1.627286 8.469999 3.213222 -0.270984
Spine -12.232987 -7.967456 -1.000923
Head 5.188948 -3.999588 1.711195
LeftShoulder -20.383445 39.309411 22.117849
LeftArm 54.229259 -53.099021 -50.596121
LeftForeArm 5.775608 -0.000000 -1.501799
LeftHand 5.488382 -0.000000 5.953100
LeftHandThumb1 -26.253704 0.000000 33.147579
RightShoulder -8.091404 5.823020 -31.975110
RightArm 13.262352 13.264311 38.498192
RightForeArm -11.690519 -0.000000 1.692814
RightHand 4.675872 -0.000000 0.891298
RightHandThumb1 -24.326973 -0.000000 -32.862282
LeftUpLeg -3.173770 -6.452708 -0.186273
LeftLeg -0.186647 -0.000000 0.000000
LeftFoot -11.807972 8.713757 -18.568352
LeftToeBase -3.420783 -0.000000 0.000000
RightUpLeg -0.873845 -2.670867 0.453980
RightLeg -4.646931 -0.000000 0.000000
RightFoot -6.941826 -6.870366 6.026710
RightToeBase 0.757594 -0.000000 -0.000000
235
root 1.263673 32.718910 1.656017 8.486833 3.327888 -0.236580
Spine -12.333567 -8.055939 -1.016685
Head 5.341450 -3.979642 1.651559
LeftShoulder -20.290553 39.270746 22.156765
LeftArm 54.159854 -53.024038 -50.519227
LeftForeArm 5.766215 -0.000000 -1.463629
LeftHand 5.544745 -0.000000 6.009624
LeftHandThumb1 -26.253704 0.000000 33.147579
RightShoulder -8.070080 5.800140 -31.989490
RightArm 13.239532 13.246372 38.557500
RightForeArm -11.679100 -0.000000 1.679127
RightHand 4.589647 -0.000000 0.839131
RightHandThumb1 -24.326973 -0.000000 -32.862282
LeftUpLeg -3.077887 -6.489071 -0.240035
LeftLeg -0.382144 -0.000000 0.000000
LeftFoot -11.396714 8.901909 -17.964183
LeftToeBase -3.176357 -0.000000 0.000000
RightUpLeg -0.838904 -2.693363 0.416114
RightLeg -4.617530 -0.000000 0.000000
RightFoot -7.011533 -6.966106 6.029500
RightToeBase 0.760054 -0.000000 -0.000000
236
root 1.279865 32.720605 1.686764 8.485733 3.451956 -0.173950
Spine -12.419946 -8.140404 -1.062269
Head 5.522867 -3.993994 1.595933
LeftShoulder -20.177714 39.249492 22.223583
LeftArm 54.178488 -52.999524 -50.605190
LeftForeArm 5.775546 -0.000000 -1.349466
LeftHand 5.574862 -0.000000 5.966458
LeftHandThumb1 -26.253704 0.000000 33.147579
RightShoulder -8.054020 5.784929 -31.992855
RightArm 13.222441 13.247811 38.590760
RightForeArm -11.674617 -0.000000 1.577144
RightHand 4.728466 0.000000 0.707495
RightHandThumb1 -24.326973 -0.000000 -32.862282
LeftUpLeg -2.971810 -6.368375 -0.345848
LeftLeg -0.550595 -0.000000 0.000000
LeftFoot -10.921307 8.902511 -17.453969
LeftToeBase -3.192250 -0.000000 0.000000
RightUpLeg -0.766971 -2.724108 0.338458
RightLeg -4.612780 -0.000000 0.000000
RightFoot -7.065004 -7.054505 6.090785
RightToeBase 0.715382 -0.000000 -0.000000
237
root 1.295394 32.721724 1.716959 8.494504 3.555432 -0.116934
Spine -12.518306 -8.197087 -1.108950
Head 5.712061 -4.024175 1.540396
LeftShoulder -20.074722 39.243633 22.267498
LeftArm 54.202536 -52.951482 -50.625579
LeftForeArm 5.756918 -0.000000 -1.314280
LeftHand 5.630695 0.000000 5.779197
LeftHandThumb1 -26.253704 0.000000 33.147579
RightShoulder -8.029670 5.751685 -32.001763
RightArm 13.195026 13.286889 38.643310
RightForeArm -11.620235 -0.000000 1.456133
RightHand 4.990649 0.000000 0.685063
RightHandThumb1 -24.326973 -0.000000 -32.862282
LeftUpLeg -2.885296 -6.168997 -0.456743
LeftLeg -0.688953 -0.000000 0.000000
LeftFoot -10.531090 8.862044 -17.023851
LeftToeBase -3.450015 -0.000000 0.000000
RightUpLeg -0.713539 -2.708300 0.266300
RightLeg -4.592913 -0.000000 0.000000
RightFoot -7.144775 -7.175349 6.140779
RightToeBase 0.748278 -0.000000 -0.000000
